<svg width="512" height="512" viewBox="0 0 512 512" fill="none" xmlns="http://www.w3.org/2000/svg">
<path d="M304 80H112C85.4903 80 64 101.49 64 128V400C64 426.51 85.4903 448 112 448H304C330.51 448 352 426.51 352 400V128C352 101.49 330.51 80 304 80Z" fill="#FFA000"/>
<path d="M272 63.9995H254.624C252.07 53.562 246.087 44.2836 237.634 37.6497C229.18 31.0158 218.746 27.4102 208 27.4102C197.254 27.4102 186.82 31.0158 178.366 37.6497C169.913 44.2836 163.93 53.562 161.376 63.9995H144C139.757 63.9995 135.687 65.6852 132.686 68.6858C129.686 71.6864 128 75.7561 128 79.9995V128C128 132.243 129.686 136.313 132.686 139.313C135.687 142.314 139.757 144 144 144H272C276.243 144 280.313 142.314 283.314 139.313C286.314 136.313 288 132.243 288 128V79.9995C288 75.7561 286.314 71.6864 283.314 68.6858C280.313 65.6852 276.243 63.9995 272 63.9995Z" fill="#424242"/>
<path d="M277.571 160H140.429C112.025 160 89 182.582 89 210.438V378.562C89 406.418 112.025 429 140.429 429H277.571C305.975 429 329 406.418 329 378.562V210.438C329 182.582 305.975 160 277.571 160Z" fill="#E0E0E0"/>
<path d="M160 249H256C260.243 249 264.313 247.314 267.314 244.314C270.314 241.313 272 237.243 272 233C272 228.757 270.314 224.687 267.314 221.686C264.313 218.686 260.243 217 256 217H160C155.757 217 151.687 218.686 148.686 221.686C145.686 224.687 144 228.757 144 233C144 237.243 145.686 241.313 148.686 244.314C151.687 247.314 155.757 249 160 249ZM256 265H160C155.757 265 151.687 266.686 148.686 269.686C145.686 272.687 144 276.757 144 281C144 285.243 145.686 289.313 148.686 292.314C151.687 295.314 155.757 297 160 297H256C260.243 297 264.313 295.314 267.314 292.314C270.314 289.313 272 285.243 272 281C272 276.757 270.314 272.687 267.314 269.686C264.313 266.686 260.243 265 256 265ZM256 313H160C155.757 313 151.687 314.686 148.686 317.686C145.686 320.687 144 324.757 144 329C144 333.243 145.686 337.313 148.686 340.314C151.687 343.314 155.757 345 160 345H256C260.243 345 264.313 343.314 267.314 340.314C270.314 337.313 272 333.243 272 329C272 324.757 270.314 320.687 267.314 317.686C264.313 314.686 260.243 313 256 313Z" fill="#424242"/>
<path d="M345.93 223.577L222.186 347.321C222.057 347.388 221.951 347.494 221.884 347.623H221.823C224.094 345.353 225.37 342.273 225.37 339.061C225.37 335.85 224.094 332.77 221.823 330.499C219.553 328.228 216.473 326.952 213.261 326.952C210.05 326.952 206.97 328.228 204.699 330.499L328.806 206.452L345.93 223.577ZM256.072 381.872C257.197 380.748 258.089 379.413 258.697 377.944C259.306 376.475 259.619 374.9 259.619 373.31C259.619 371.72 259.306 370.145 258.697 368.676C258.089 367.207 257.197 365.872 256.072 364.748C254.948 363.623 253.613 362.732 252.144 362.123C250.675 361.514 249.1 361.201 247.51 361.201C245.92 361.201 244.345 361.514 242.876 362.123C241.407 362.732 240.072 363.623 238.948 364.748L362.994 240.641L380.179 257.826L256.072 381.872Z" fill="#802F34"/>
<path d="M431.492 206.452L401.54 236.405L350.166 185.031L380.119 155.079C384.665 150.546 390.823 148 397.243 148C403.663 148 409.822 150.546 414.368 155.079L431.492 172.203C436.025 176.749 438.571 182.908 438.571 189.328C438.571 195.748 436.025 201.906 431.492 206.452Z" fill="#FF5364"/>
<path d="M401.534 167.925C400.975 167.347 400.308 166.886 399.569 166.569C398.831 166.252 398.037 166.085 397.234 166.078C396.43 166.071 395.633 166.224 394.89 166.529C394.146 166.833 393.471 167.282 392.902 167.85C392.334 168.418 391.885 169.094 391.581 169.838C391.276 170.581 391.123 171.378 391.13 172.182C391.137 172.985 391.304 173.779 391.621 174.517C391.938 175.256 392.399 175.923 392.977 176.481C394.119 177.584 395.647 178.194 397.234 178.18C398.82 178.166 400.338 177.53 401.46 176.408C402.582 175.286 403.218 173.768 403.232 172.182C403.246 170.595 402.636 169.066 401.534 167.925ZM375.859 185.038L363.025 197.878C362.447 198.436 361.986 199.104 361.669 199.842C361.351 200.58 361.185 201.374 361.178 202.178C361.171 202.981 361.324 203.778 361.628 204.522C361.932 205.265 362.382 205.941 362.95 206.509C363.518 207.077 364.193 207.527 364.937 207.831C365.681 208.135 366.478 208.288 367.281 208.281C368.084 208.274 368.878 208.107 369.617 207.79C370.355 207.473 371.023 207.012 371.581 206.434L384.415 193.594C384.993 193.036 385.454 192.368 385.771 191.63C386.088 190.891 386.255 190.097 386.262 189.294C386.269 188.49 386.116 187.694 385.812 186.95C385.508 186.206 385.058 185.531 384.49 184.963C383.922 184.394 383.246 183.945 382.503 183.641C381.759 183.337 380.962 183.184 380.159 183.191C379.355 183.198 378.561 183.364 377.823 183.682C377.085 183.999 376.417 184.46 375.859 185.038Z" fill="#FDD7AD"/>
<path fill-rule="evenodd" clip-rule="evenodd" d="M222.186 347.321L221.279 348.228Z" fill="black"/>
<path d="M209.54 401.357L181.402 413.096C180.294 413.563 179.071 413.69 177.89 413.459C176.709 413.228 175.623 412.65 174.772 411.799C173.921 410.948 173.344 409.863 173.113 408.682C172.882 407.501 173.008 406.278 173.476 405.169L185.215 377.031C190.948 378.791 196.162 381.928 200.403 386.169C204.643 390.409 207.78 395.624 209.54 401.357Z" fill="#2C3E50"/>
<path d="M238.948 364.748C241.093 362.489 242.285 359.49 242.275 356.375C242.265 353.26 241.055 350.269 238.895 348.024C236.736 345.779 233.794 344.453 230.682 344.322C227.57 344.191 224.527 345.265 222.186 347.321L345.93 223.577L362.994 240.641L238.948 364.748Z" fill="#F29C1F"/>
<path d="M256.072 381.872L209.54 401.357C207.78 395.624 204.643 390.409 200.403 386.169C196.162 381.928 190.948 378.791 185.215 377.031L204.699 330.499C205.823 329.375 207.158 328.483 208.627 327.874C210.096 327.266 211.671 326.952 213.261 326.952C214.851 326.952 216.426 327.266 217.895 327.874C219.364 328.483 220.699 329.375 221.823 330.499C222.948 331.623 223.84 332.959 224.448 334.428C225.057 335.897 225.37 337.471 225.37 339.061C225.37 340.651 225.057 342.226 224.448 343.695C223.84 345.164 222.948 346.499 221.823 347.623H221.884C221.951 347.494 222.057 347.388 222.186 347.321C224.527 345.265 227.57 344.191 230.682 344.322C233.794 344.453 236.736 345.779 238.895 348.024C241.055 350.269 242.265 353.26 242.275 356.375C242.285 359.49 241.093 362.489 238.948 364.748C240.072 363.623 241.407 362.732 242.876 362.123C244.345 361.514 245.92 361.201 247.51 361.201C249.1 361.201 250.675 361.514 252.144 362.123C253.613 362.732 254.948 363.623 256.072 364.748C257.197 365.872 258.089 367.207 258.697 368.676C259.306 370.145 259.619 371.72 259.619 373.31C259.619 374.9 259.306 376.475 258.697 377.944C258.089 379.413 257.197 380.748 256.072 381.872Z" fill="#F9EAB0"/>
<path d="M401.54 236.405L380.179 257.826L328.806 206.452L350.166 185.031L401.54 236.405Z" fill="#BDC3C7"/>
</svg>
